<mxfile host="app.diagrams.net" agent="Mozilla/5.0 (Macintosh; Intel Mac OS X 10_15_7) AppleWebKit/605.1.15 (KHTML, like Gecko) Version/18.3 Safari/605.1.15" version="26.0.14">
  <diagram name="Pagina-1" id="jnzx7Gzt8QoGvNylLfsQ">
    <mxGraphModel dx="846" dy="1061" grid="1" gridSize="10" guides="1" tooltips="1" connect="1" arrows="1" fold="1" page="1" pageScale="1" pageWidth="827" pageHeight="1169" math="0" shadow="0">
      <root>
        <mxCell id="0" />
        <mxCell id="1" parent="0" />
        <mxCell id="xiKvGZu0TaWKVB8SBVSR-1" value="" style="edgeStyle=orthogonalEdgeStyle;rounded=0;orthogonalLoop=1;jettySize=auto;html=1;strokeWidth=2;" edge="1" parent="1" source="xiKvGZu0TaWKVB8SBVSR-2" target="xiKvGZu0TaWKVB8SBVSR-4">
          <mxGeometry relative="1" as="geometry" />
        </mxCell>
        <mxCell id="xiKvGZu0TaWKVB8SBVSR-2" value="for-j&lt;div&gt;{time}&lt;/div&gt;" style="rhombus;whiteSpace=wrap;html=1;fontSize=14;startSize=30;fontStyle=1;strokeWidth=2;" vertex="1" parent="1">
          <mxGeometry x="333" y="80" width="100" height="70" as="geometry" />
        </mxCell>
        <mxCell id="xiKvGZu0TaWKVB8SBVSR-3" style="edgeStyle=orthogonalEdgeStyle;rounded=0;orthogonalLoop=1;jettySize=auto;html=1;entryX=0.5;entryY=0;entryDx=0;entryDy=0;strokeWidth=2;" edge="1" parent="1" source="xiKvGZu0TaWKVB8SBVSR-4" target="xiKvGZu0TaWKVB8SBVSR-8">
          <mxGeometry relative="1" as="geometry" />
        </mxCell>
        <mxCell id="xiKvGZu0TaWKVB8SBVSR-4" value="t = time" style="whiteSpace=wrap;html=1;fontSize=12;startSize=30;fontStyle=0;strokeWidth=2;" vertex="1" parent="1">
          <mxGeometry x="343" y="170" width="80" height="30" as="geometry" />
        </mxCell>
        <mxCell id="xiKvGZu0TaWKVB8SBVSR-5" style="edgeStyle=orthogonalEdgeStyle;rounded=0;orthogonalLoop=1;jettySize=auto;html=1;entryX=0.5;entryY=0;entryDx=0;entryDy=0;strokeWidth=2;" edge="1" parent="1" source="xiKvGZu0TaWKVB8SBVSR-8">
          <mxGeometry relative="1" as="geometry">
            <mxPoint x="383" y="310" as="targetPoint" />
          </mxGeometry>
        </mxCell>
        <mxCell id="xiKvGZu0TaWKVB8SBVSR-6" style="edgeStyle=orthogonalEdgeStyle;rounded=0;orthogonalLoop=1;jettySize=auto;html=1;entryX=1;entryY=0.5;entryDx=0;entryDy=0;strokeWidth=2;" edge="1" parent="1" source="xiKvGZu0TaWKVB8SBVSR-8" target="xiKvGZu0TaWKVB8SBVSR-23">
          <mxGeometry relative="1" as="geometry">
            <Array as="points">
              <mxPoint x="569" y="255" />
              <mxPoint x="569" y="740" />
            </Array>
          </mxGeometry>
        </mxCell>
        <mxCell id="xiKvGZu0TaWKVB8SBVSR-7" value="&amp;nbsp;end-i&amp;nbsp;" style="edgeLabel;html=1;align=center;verticalAlign=middle;resizable=0;points=[];" vertex="1" connectable="0" parent="xiKvGZu0TaWKVB8SBVSR-6">
          <mxGeometry x="-0.8583" y="1" relative="1" as="geometry">
            <mxPoint x="13" y="1" as="offset" />
          </mxGeometry>
        </mxCell>
        <mxCell id="xiKvGZu0TaWKVB8SBVSR-8" value="for-i&lt;div&gt;{space}&lt;/div&gt;" style="rhombus;whiteSpace=wrap;html=1;fontSize=14;startSize=30;fontStyle=1;strokeWidth=2;" vertex="1" parent="1">
          <mxGeometry x="333" y="220" width="100" height="70" as="geometry" />
        </mxCell>
        <mxCell id="xiKvGZu0TaWKVB8SBVSR-9" value="" style="edgeStyle=orthogonalEdgeStyle;rounded=0;orthogonalLoop=1;jettySize=auto;html=1;strokeWidth=2;exitX=0.471;exitY=0.989;exitDx=0;exitDy=0;entryX=0.5;entryY=0;entryDx=0;entryDy=0;exitPerimeter=0;" edge="1" parent="1" source="xiKvGZu0TaWKVB8SBVSR-30" target="xiKvGZu0TaWKVB8SBVSR-13">
          <mxGeometry relative="1" as="geometry">
            <mxPoint x="375.5" y="340" as="sourcePoint" />
            <mxPoint x="373" y="359.5" as="targetPoint" />
          </mxGeometry>
        </mxCell>
        <mxCell id="xiKvGZu0TaWKVB8SBVSR-10" value="" style="edgeStyle=orthogonalEdgeStyle;rounded=0;orthogonalLoop=1;jettySize=auto;html=1;strokeWidth=2;" edge="1" parent="1" source="xiKvGZu0TaWKVB8SBVSR-13" target="xiKvGZu0TaWKVB8SBVSR-15">
          <mxGeometry relative="1" as="geometry" />
        </mxCell>
        <mxCell id="xiKvGZu0TaWKVB8SBVSR-11" value="&amp;nbsp;i == 1&amp;nbsp;" style="edgeLabel;html=1;align=center;verticalAlign=middle;resizable=0;points=[];" vertex="1" connectable="0" parent="xiKvGZu0TaWKVB8SBVSR-10">
          <mxGeometry relative="1" as="geometry">
            <mxPoint x="-19" as="offset" />
          </mxGeometry>
        </mxCell>
        <mxCell id="xiKvGZu0TaWKVB8SBVSR-12" style="edgeStyle=orthogonalEdgeStyle;rounded=0;orthogonalLoop=1;jettySize=auto;html=1;entryX=0.5;entryY=0;entryDx=0;entryDy=0;strokeWidth=2;" edge="1" parent="1" source="xiKvGZu0TaWKVB8SBVSR-13" target="xiKvGZu0TaWKVB8SBVSR-17">
          <mxGeometry relative="1" as="geometry" />
        </mxCell>
        <mxCell id="xiKvGZu0TaWKVB8SBVSR-13" value="if" style="rhombus;whiteSpace=wrap;html=1;fontSize=14;startSize=30;fontStyle=1;strokeWidth=2;" vertex="1" parent="1">
          <mxGeometry x="373" y="359.5" width="20" height="35" as="geometry" />
        </mxCell>
        <mxCell id="xiKvGZu0TaWKVB8SBVSR-14" style="edgeStyle=orthogonalEdgeStyle;rounded=0;orthogonalLoop=1;jettySize=auto;html=1;entryX=1;entryY=0.5;entryDx=0;entryDy=0;strokeWidth=2;" edge="1" parent="1" source="xiKvGZu0TaWKVB8SBVSR-15" target="xiKvGZu0TaWKVB8SBVSR-19">
          <mxGeometry relative="1" as="geometry" />
        </mxCell>
        <mxCell id="xiKvGZu0TaWKVB8SBVSR-15" value="Fuel mass flux rate&amp;nbsp;&lt;div&gt;NULL&lt;/div&gt;" style="rounded=1;whiteSpace=wrap;html=1;fontSize=12;startSize=30;fontStyle=0;strokeWidth=2;" vertex="1" parent="1">
          <mxGeometry x="423" y="415" width="130" height="40" as="geometry" />
        </mxCell>
        <mxCell id="xiKvGZu0TaWKVB8SBVSR-16" style="edgeStyle=orthogonalEdgeStyle;rounded=0;orthogonalLoop=1;jettySize=auto;html=1;entryX=0;entryY=0.5;entryDx=0;entryDy=0;strokeWidth=2;" edge="1" parent="1" source="xiKvGZu0TaWKVB8SBVSR-17" target="xiKvGZu0TaWKVB8SBVSR-19">
          <mxGeometry relative="1" as="geometry" />
        </mxCell>
        <mxCell id="xiKvGZu0TaWKVB8SBVSR-17" value="Use of Trapezi&#39;s integration model for estimate the fuel mass flux rate" style="rounded=1;whiteSpace=wrap;html=1;fontSize=12;startSize=30;fontStyle=0;strokeWidth=2;" vertex="1" parent="1">
          <mxGeometry x="213" y="400" width="130" height="70" as="geometry" />
        </mxCell>
        <mxCell id="xiKvGZu0TaWKVB8SBVSR-18" style="edgeStyle=orthogonalEdgeStyle;rounded=0;orthogonalLoop=1;jettySize=auto;html=1;exitX=0.5;exitY=1;exitDx=0;exitDy=0;entryX=0.5;entryY=0;entryDx=0;entryDy=0;strokeWidth=2;" edge="1" parent="1" source="xiKvGZu0TaWKVB8SBVSR-19" target="xiKvGZu0TaWKVB8SBVSR-21">
          <mxGeometry relative="1" as="geometry" />
        </mxCell>
        <mxCell id="xiKvGZu0TaWKVB8SBVSR-19" value="Propellant mass flux rate&lt;div&gt;G = G&lt;sub&gt;o&lt;/sub&gt; + G&lt;sub&gt;f&lt;/sub&gt;&lt;/div&gt;" style="rounded=1;whiteSpace=wrap;html=1;fontSize=12;startSize=30;fontStyle=0;strokeWidth=2;" vertex="1" parent="1">
          <mxGeometry x="305.5" y="490" width="155" height="40" as="geometry" />
        </mxCell>
        <mxCell id="xiKvGZu0TaWKVB8SBVSR-20" style="edgeStyle=orthogonalEdgeStyle;rounded=0;orthogonalLoop=1;jettySize=auto;html=1;entryX=0;entryY=0.5;entryDx=0;entryDy=0;strokeWidth=2;" edge="1" parent="1" source="xiKvGZu0TaWKVB8SBVSR-21" target="xiKvGZu0TaWKVB8SBVSR-8">
          <mxGeometry relative="1" as="geometry">
            <Array as="points">
              <mxPoint x="199" y="610" />
              <mxPoint x="199" y="255" />
            </Array>
          </mxGeometry>
        </mxCell>
        <mxCell id="xiKvGZu0TaWKVB8SBVSR-21" value="{time constant}&lt;div&gt;&lt;br&gt;&lt;/div&gt;&lt;div&gt;Regression rate&lt;/div&gt;&lt;div&gt;R&lt;sub&gt;dot&lt;/sub&gt; = a·G&lt;sup&gt;n·&lt;/sup&gt;x&lt;sup&gt;m&lt;/sup&gt;&lt;/div&gt;&lt;div&gt;&lt;br&gt;&lt;/div&gt;&lt;div&gt;Mass flow&lt;/div&gt;&lt;div&gt;w = G·A&lt;/div&gt;" style="rounded=1;whiteSpace=wrap;html=1;fontSize=12;startSize=30;fontStyle=0;strokeWidth=2;" vertex="1" parent="1">
          <mxGeometry x="331.25" y="550" width="103.5" height="120" as="geometry" />
        </mxCell>
        <mxCell id="xiKvGZu0TaWKVB8SBVSR-22" style="edgeStyle=orthogonalEdgeStyle;rounded=0;orthogonalLoop=1;jettySize=auto;html=1;entryX=0;entryY=0.5;entryDx=0;entryDy=0;strokeWidth=2;" edge="1" parent="1" source="xiKvGZu0TaWKVB8SBVSR-23" target="xiKvGZu0TaWKVB8SBVSR-2">
          <mxGeometry relative="1" as="geometry">
            <mxPoint x="269" y="230" as="targetPoint" />
            <Array as="points">
              <mxPoint x="189" y="740" />
              <mxPoint x="189" y="115" />
            </Array>
          </mxGeometry>
        </mxCell>
        <mxCell id="xiKvGZu0TaWKVB8SBVSR-23" value="{time variation}&lt;div&gt;&lt;br&gt;&lt;/div&gt;&lt;div&gt;Regression rate&lt;/div&gt;&lt;div&gt;R&lt;sub&gt;dot&lt;/sub&gt; = a·G&lt;sup&gt;n·&lt;/sup&gt;x&lt;sup&gt;m&lt;/sup&gt;&lt;/div&gt;&lt;div&gt;&lt;br&gt;&lt;/div&gt;&lt;div&gt;Mass flow&lt;/div&gt;&lt;div&gt;w = G·A&lt;/div&gt;" style="rounded=1;whiteSpace=wrap;html=1;fontSize=12;startSize=30;fontStyle=0;strokeWidth=2;" vertex="1" parent="1">
          <mxGeometry x="331.25" y="680" width="103.5" height="120" as="geometry" />
        </mxCell>
        <mxCell id="xiKvGZu0TaWKVB8SBVSR-24" value="Vectorial Results" style="swimlane;fontStyle=1;childLayout=stackLayout;horizontal=1;startSize=26;fillColor=default;horizontalStack=0;resizeParent=1;resizeParentMax=0;resizeLast=0;collapsible=1;marginBottom=0;html=1;fontSize=14;strokeWidth=2;" vertex="1" parent="1">
          <mxGeometry x="479" y="140" width="160" height="104" as="geometry" />
        </mxCell>
        <mxCell id="xiKvGZu0TaWKVB8SBVSR-25" value="Propellant Mass Flux Rate" style="text;strokeColor=none;fillColor=none;align=center;verticalAlign=top;spacingLeft=4;spacingRight=4;overflow=hidden;rotatable=0;points=[[0,0.5],[1,0.5]];portConstraint=eastwest;whiteSpace=wrap;html=1;fontStyle=2" vertex="1" parent="xiKvGZu0TaWKVB8SBVSR-24">
          <mxGeometry y="26" width="160" height="26" as="geometry" />
        </mxCell>
        <mxCell id="xiKvGZu0TaWKVB8SBVSR-26" value="Propellant Mass Flow" style="text;strokeColor=none;fillColor=none;align=center;verticalAlign=top;spacingLeft=4;spacingRight=4;overflow=hidden;rotatable=0;points=[[0,0.5],[1,0.5]];portConstraint=eastwest;whiteSpace=wrap;html=1;fontStyle=2" vertex="1" parent="xiKvGZu0TaWKVB8SBVSR-24">
          <mxGeometry y="52" width="160" height="26" as="geometry" />
        </mxCell>
        <mxCell id="xiKvGZu0TaWKVB8SBVSR-27" value="Regressed Radii" style="text;strokeColor=none;fillColor=none;align=center;verticalAlign=top;spacingLeft=4;spacingRight=4;overflow=hidden;rotatable=0;points=[[0,0.5],[1,0.5]];portConstraint=eastwest;whiteSpace=wrap;html=1;fontStyle=2" vertex="1" parent="xiKvGZu0TaWKVB8SBVSR-24">
          <mxGeometry y="78" width="160" height="26" as="geometry" />
        </mxCell>
        <mxCell id="xiKvGZu0TaWKVB8SBVSR-28" style="edgeStyle=orthogonalEdgeStyle;rounded=0;orthogonalLoop=1;jettySize=auto;html=1;exitX=1;exitY=0.5;exitDx=0;exitDy=0;entryX=0.5;entryY=0;entryDx=0;entryDy=0;strokeWidth=2;" edge="1" parent="1" source="xiKvGZu0TaWKVB8SBVSR-2" target="xiKvGZu0TaWKVB8SBVSR-24">
          <mxGeometry relative="1" as="geometry">
            <Array as="points">
              <mxPoint x="559" y="115" />
            </Array>
          </mxGeometry>
        </mxCell>
        <mxCell id="xiKvGZu0TaWKVB8SBVSR-29" value="&amp;nbsp;end-j&amp;nbsp;" style="edgeLabel;html=1;align=center;verticalAlign=middle;resizable=0;points=[];" vertex="1" connectable="0" parent="xiKvGZu0TaWKVB8SBVSR-28">
          <mxGeometry x="-0.4626" relative="1" as="geometry">
            <mxPoint x="18" as="offset" />
          </mxGeometry>
        </mxCell>
        <mxCell id="xiKvGZu0TaWKVB8SBVSR-30" value="x = space" style="rounded=1;whiteSpace=wrap;html=1;fontSize=12;startSize=30;fontStyle=0;strokeWidth=2;" vertex="1" parent="1">
          <mxGeometry x="345.5" y="310" width="75" height="30" as="geometry" />
        </mxCell>
        <mxCell id="xiKvGZu0TaWKVB8SBVSR-31" value="" style="endArrow=classic;html=1;rounded=0;entryX=0.5;entryY=0;entryDx=0;entryDy=0;strokeWidth=2;" edge="1" parent="1" target="xiKvGZu0TaWKVB8SBVSR-2">
          <mxGeometry width="50" height="50" relative="1" as="geometry">
            <mxPoint x="383" y="50" as="sourcePoint" />
            <mxPoint x="410" y="300" as="targetPoint" />
          </mxGeometry>
        </mxCell>
      </root>
    </mxGraphModel>
  </diagram>
</mxfile>
